<svg xmlns="http://www.w3.org/2000/svg" viewBox="0 0 200 200" width="200" height="200">
  <!-- Fondo circular -->
  <circle cx="100" cy="100" r="90" fill="#e74c3c" />
  
  <!-- Silueta de persona -->
  <!-- Cabeza -->
  <circle cx="100" cy="70" r="40" fill="#ecf0f1" />
  
  <!-- Cuerpo -->
  <path d="M60 140 Q100 180, 140 140 L140 200 L60 200 Z" fill="#ecf0f1" />
  
  <!-- Detalles de la cara -->
  <!-- Ojos -->
  <circle cx="85" cy="65" r="5" fill="#2c3e50" />
  <circle cx="115" cy="65" r="5" fill="#2c3e50" />
  
  <!-- Sonrisa -->
  <path d="M80 85 Q100 100, 120 85" stroke="#2c3e50" stroke-width="3" fill="none" />
  
  <!-- Cabello -->
  <path d="M60 40 L70 30 L80 40 L90 30 L100 40 L110 30 L120 40 L130 30 L140 40 L140 70 L60 70 Z" fill="#2c3e50" />
  
  <!-- Detalles profesionales -->
  <rect x="60" y="120" width="80" height="20" rx="5" ry="5" fill="#c0392b" />
  <text x="100" y="135" font-family="Arial" font-size="12" fill="white" text-anchor="middle">Lead Developer</text>
</svg>