<svg xmlns="http://www.w3.org/2000/svg" viewBox="0 0 200 200" width="200" height="200">
  <!-- Fondo circular -->
  <circle cx="100" cy="100" r="90" fill="#2ecc71" />
  
  <!-- Silueta de persona -->
  <!-- Cabeza -->
  <circle cx="100" cy="70" r="40" fill="#ecf0f1" />
  
  <!-- Cuerpo -->
  <path d="M60 140 Q100 180, 140 140 L140 200 L60 200 Z" fill="#ecf0f1" />
  
  <!-- Detalles de la cara -->
  <!-- Ojos -->
  <circle cx="85" cy="65" r="5" fill="#2c3e50" />
  <circle cx="115" cy="65" r="5" fill="#2c3e50" />
  
  <!-- Sonrisa -->
  <path d="M80 85 Q100 100, 120 85" stroke="#2c3e50" stroke-width="3" fill="none" />
  
  <!-- Cabello -->
  <path d="M60 70 Q60 30, 100 30 Q140 30, 140 70" fill="#2c3e50" />
  <path d="M60 70 Q70 75, 80 65 Q90 55, 100 65 Q110 75, 120 65 Q130 55, 140 70" fill="#2c3e50" />
  
  <!-- Detalles profesionales -->
  <rect x="70" y="120" width="60" height="20" rx="5" ry="5" fill="#27ae60" />
  <text x="100" y="135" font-family="Arial" font-size="12" fill="white" text-anchor="middle">CTO</text>
</svg>